<svg xmlns="http://www.w3.org/2000/svg" xmlns:xlink="http://www.w3.org/1999/xlink" viewBox="0 0 80 80"><defs><style>.cls-1{isolation:isolate;}.cls-2{fill:#fff;}.cls-27,.cls-3,.cls-6{opacity:0.2;}.cls-3{mix-blend-mode:multiply;}.cls-11,.cls-14,.cls-16,.cls-18,.cls-32,.cls-4{opacity:0.5;}.cls-13,.cls-15,.cls-5{opacity:0.15;}.cls-29,.cls-7{opacity:0.1;}.cls-30,.cls-8{opacity:0.3;}.cls-31,.cls-9{opacity:0.7;}.cls-10{fill:url(#未命名的渐变_58);}.cls-11{fill:url(#未命名的渐变_58-2);}.cls-12{fill:url(#未命名的渐变_58-3);}.cls-13{fill:url(#未命名的渐变_58-4);}.cls-14{fill:url(#未命名的渐变_58-5);}.cls-15{fill:url(#未命名的渐变_58-6);}.cls-16{fill:url(#未命名的渐变_58-7);}.cls-17{fill:url(#未命名的渐变_58-8);}.cls-18{fill:url(#未命名的渐变_58-9);}.cls-19{fill:url(#未命名的渐变_58-10);}.cls-20{fill:url(#未命名的渐变_8);}.cls-21{fill:url(#未命名的渐变_58-11);}.cls-22{fill:url(#未命名的渐变_58-12);}.cls-23{fill:url(#未命名的渐变_58-13);}.cls-24{fill:url(#未命名的渐变_8-2);}.cls-25{fill:url(#未命名的渐变_58-14);}.cls-26{fill:url(#未命名的渐变_58-15);}.cls-27,.cls-29,.cls-30{fill:#4a7af4;}.cls-28{fill:url(#未命名的渐变_58-16);}.cls-31{fill:#494949;}.cls-32{fill:#a0a0a0;}.cls-33{fill:url(#未命名的渐变_76);}.cls-34{fill:url(#未命名的渐变_76-2);}.cls-35,.cls-36,.cls-37,.cls-38{fill:none;stroke-linecap:round;stroke-miterlimit:10;stroke-width:1.5px;}.cls-35{stroke:url(#未命名的渐变_58-17);}.cls-36{stroke:url(#未命名的渐变_58-18);}.cls-37{stroke:url(#未命名的渐变_58-19);}.cls-38{stroke:url(#未命名的渐变_58-20);}</style><linearGradient id="未命名的渐变_58" x1="7.27" y1="39.44" x2="7.27" y2="48.68" gradientUnits="userSpaceOnUse"><stop offset="0" stop-color="#4866ff"/><stop offset="1" stop-color="#12d8fa"/></linearGradient><linearGradient id="未命名的渐变_58-2" x1="46.06" y1="50.3" x2="46.06" y2="56.53" gradientTransform="matrix(0.17, 1.15, -0.99, 0.2, 81.24, -12.8)" xlink:href="#未命名的渐变_58"/><linearGradient id="未命名的渐变_58-3" x1="27.23" y1="44.85" x2="36.68" y2="44.85" xlink:href="#未命名的渐变_58"/><linearGradient id="未命名的渐变_58-4" x1="36.87" y1="47.91" x2="36.87" y2="54" xlink:href="#未命名的渐变_58"/><linearGradient id="未命名的渐变_58-5" x1="45.1" y1="50.18" x2="45.1" y2="56.42" gradientTransform="translate(-2.16 -7.4) rotate(6.88)" xlink:href="#未命名的渐变_58"/><linearGradient id="未命名的渐变_58-6" x1="109.66" y1="47.91" x2="109.66" y2="54" gradientTransform="matrix(-1, 0, 0, 1, 155.51, 0)" xlink:href="#未命名的渐变_58"/><linearGradient id="未命名的渐变_58-7" x1="143.84" y1="33.9" x2="143.84" y2="40.13" gradientTransform="matrix(-1.15, -0.17, -0.2, 0.99, 219.26, 39.18)" xlink:href="#未命名的渐变_58"/><linearGradient id="未命名的渐变_58-8" x1="55.48" y1="44.85" x2="46.03" y2="44.85" xlink:href="#未命名的渐变_58"/><linearGradient id="未命名的渐变_58-9" x1="158.46" y1="36.5" x2="158.46" y2="42.73" gradientTransform="matrix(-0.99, 0.12, 0.12, 0.99, 199.05, -7.4)" xlink:href="#未命名的渐变_58"/><linearGradient id="未命名的渐变_58-10" x1="41.58" y1="42.09" x2="41.58" y2="32" xlink:href="#未命名的渐变_58"/><linearGradient id="未命名的渐变_8" x1="9.33" y1="33.56" x2="17.71" y2="40.59" gradientUnits="userSpaceOnUse"><stop offset="0" stop-color="#1fa2ff"/><stop offset="0.51" stop-color="#12d8fa"/><stop offset="1" stop-color="#a6ffcb"/></linearGradient><linearGradient id="未命名的渐变_58-11" x1="9.33" y1="33.56" x2="17.71" y2="40.59" xlink:href="#未命名的渐变_58"/><linearGradient id="未命名的渐变_58-12" x1="24.94" y1="34.37" x2="24.94" y2="39.52" xlink:href="#未命名的渐变_58"/><linearGradient id="未命名的渐变_58-13" x1="41.92" y1="37.82" x2="41.92" y2="40.56" xlink:href="#未命名的渐变_58"/><linearGradient id="未命名的渐变_8-2" x1="1.61" y1="39.68" x2="1.61" y2="39.72" xlink:href="#未命名的渐变_8"/><linearGradient id="未命名的渐变_58-14" x1="13.2" y1="44.76" x2="15.85" y2="44.76" xlink:href="#未命名的渐变_58"/><linearGradient id="未命名的渐变_58-15" x1="1.72" y1="39.96" x2="15.84" y2="39.96" xlink:href="#未命名的渐变_58"/><linearGradient id="未命名的渐变_58-16" x1="24.1" y1="34.07" x2="24.1" y2="33.46" gradientTransform="translate(1.91 -1.29) rotate(3.18)" xlink:href="#未命名的渐变_58"/><linearGradient id="未命名的渐变_76" x1="6.12" y1="35.35" x2="11.88" y2="35.35" gradientUnits="userSpaceOnUse"><stop offset="0" stop-opacity="0.2"/><stop offset="1" stop-opacity="0"/></linearGradient><linearGradient id="未命名的渐变_76-2" x1="77.01" y1="35.34" x2="71.28" y2="35.34" xlink:href="#未命名的渐变_76"/><linearGradient id="未命名的渐变_58-17" x1="12.75" y1="61.25" x2="12.75" y2="73.25" xlink:href="#未命名的渐变_58"/><linearGradient id="未命名的渐变_58-18" x1="67.25" y1="61.25" x2="67.25" y2="73.25" xlink:href="#未命名的渐变_58"/><linearGradient id="未命名的渐变_58-19" x1="67.25" y1="6.75" x2="67.25" y2="18.75" xlink:href="#未命名的渐变_58"/><linearGradient id="未命名的渐变_58-20" x1="12.75" y1="6.75" x2="12.75" y2="18.75" xlink:href="#未命名的渐变_58"/></defs><title>资源 3</title><g class="cls-1"><g id="图层_2" data-name="图层 2"><g id="图层_1-2" data-name="图层 1"><rect class="cls-2" width="80" height="80" rx="17.34" ry="17.34"/><g class="cls-3"><path d="M13.2,50.68A56.5,56.5,0,0,1,2.51,48a1.73,1.73,0,0,1-1.16-1.63V42.06a.62.62,0,0,1,.76-.6c2,.45,5,1.91,11.09,2.75Z"/><ellipse class="cls-4" cx="36.53" cy="52.95" rx="3.15" ry="1.37" transform="translate(-24.71 72.65) rotate(-73.23)"/><path d="M36.68,50.13a9.88,9.88,0,0,0-9.45-7v.6a9.28,9.28,0,0,1,9,6.93A2.52,2.52,0,0,1,36.68,50.13Z"/><path class="cls-5" d="M37.55,50a.66.66,0,0,0-.5,0l.1,0c.68.37.77,2,.2,3.64A3.62,3.62,0,0,1,35.6,56c.68.22,1.62-.79,2.16-2.35S38.23,50.35,37.55,50Z"/><path class="cls-4" d="M36.1,52.42a3.93,3.93,0,0,1,1.62-2.3.58.58,0,0,0-.17-.14c-.67-.37-1.68.66-2.25,2.31s-.47,3.27.2,3.64a.7.7,0,0,0,.63,0C35.62,55.38,35.59,53.91,36.1,52.42Z"/><path class="cls-5" d="M45.16,50a.66.66,0,0,1,.5,0l-.1,0c-.67.37-.77,2-.2,3.64A3.65,3.65,0,0,0,47.11,56c-.67.22-1.62-.79-2.15-2.35S44.48,50.35,45.16,50Z"/><ellipse class="cls-4" cx="46.18" cy="52.95" rx="1.37" ry="3.15" transform="translate(-13.31 15.58) rotate(-16.77)"/><path d="M46,50.12a2.52,2.52,0,0,1,.49.49,9.27,9.27,0,0,1,9-6.92v-.6A9.88,9.88,0,0,0,46,50.12Z"/><path class="cls-4" d="M46.61,52.42A3.9,3.9,0,0,0,45,50.12a.75.75,0,0,1,.17-.14c.68-.37,1.69.66,2.26,2.31s.47,3.27-.21,3.64a.7.7,0,0,1-.63,0C47.09,55.38,47.12,53.91,46.61,52.42Z"/><path d="M55.48,35.14h0a.9.9,0,0,0,.85.94c13.08.68,19.16,2.05,20.38,2.93-1.9,1.4-14.84,3.28-35.13,3.28S8.33,40.41,6.44,39c1.13-.83,6.31-1.93,15.63-2.63.26.3.83.38,1.42,1C25,39,25.44,41.64,28,41.52l6.27-.28a.58.58,0,0,0,.55-.6l-.22-4.85h0l0-1.79a196,196,0,0,0-20.91,1.44c-8,1.12-9.11,2.37-9.11,3.56,0,1.8,3.3,2.92,11.39,3.85a234,234,0,0,0,25.68,1.24,234.26,234.26,0,0,0,25.68-1.24c8.09-.93,11.39-2.05,11.39-3.85,0-.89,0-3.57-22.23-4.71A.89.89,0,0,0,55.48,35.14Z"/><path d="M19.48,39.33h0a2.71,2.71,0,0,0-2.25-2.52c-6.29.66-9.87,1.52-10.79,2.19,1,.77,5.34,1.67,12.31,2.34A2.7,2.7,0,0,0,19.48,39.33Z"/><path d="M19.48,39.33h0a2.71,2.71,0,0,0-2.25-2.52c-6.29.66-9.87,1.52-10.79,2.19,1,.77,5.34,1.67,12.31,2.34A2.7,2.7,0,0,0,19.48,39.33Z"/><path d="M27.8,41.52a4.4,4.4,0,0,1-2-1.7,8.36,8.36,0,0,0-2.12-2.64,5.59,5.59,0,0,0-1.62-.81c.26.3.83.38,1.42,1C25,39,25.43,41.51,27.8,41.52Z"/><path d="M74.55,39.82c-4.78,1.22-16.43,2.47-33,2.47-15.8,0-27.14-1.14-32.29-2.31,6.61,1.7,18.58,2.58,32.29,2.58C55.72,42.56,68.08,41.6,74.55,39.82Z"/><path d="M1.62,41.68l0,0h0S1.61,41.69,1.62,41.68Z"/><polygon points="13.2 44.21 13.2 50.68 15.85 49.18 15.85 42.84 13.2 44.21"/><path d="M4.72,39.72a17.6,17.6,0,0,0-3,1.78.64.64,0,0,1,.39,0c2,.45,5,1.91,11.09,2.75l2.64-1.36C8.93,42,5.53,41.11,4.72,39.72Z"/><path class="cls-6" d="M13.34,50.19a98.94,98.94,0,0,0,11,1.07V45.58a101.64,101.64,0,0,1-11-1Z"/><path class="cls-6" d="M15.69,48.88a98.94,98.94,0,0,0,11,1.07V44.27a100.24,100.24,0,0,1-11-1Z"/><rect x="22.99" y="35.51" width="2.22" height="0.51" rx="0.26" ry="0.26" transform="translate(-1.95 1.39) rotate(-3.18)"/><path class="cls-7" d="M15.69,43.26l-2.35,1.32s5.7.83,11,1l2.35-1.31A105.11,105.11,0,0,1,15.69,43.26Z"/><path class="cls-8" d="M15.69,48.88l-2.35,1.31a86.49,86.49,0,0,0,11,1.07L26.69,50h0A103.39,103.39,0,0,1,15.69,48.88Z"/><ellipse class="cls-9" cx="3.36" cy="45.18" rx="1.01" ry="1.39" transform="translate(-2.08 0.2) rotate(-2.65)"/><ellipse class="cls-4" cx="3.36" cy="45.18" rx="0.56" ry="0.77" transform="translate(-1.25 0.11) rotate(-1.58)"/><ellipse class="cls-9" cx="3.36" cy="45.18" rx="0.22" ry="0.3" transform="translate(-1.25 0.11) rotate(-1.58)"/><path d="M11.88,35.7c-1.58.26-2.84.53-3.82.79C5.05,37.73,6.44,39,6.44,39a14.45,14.45,0,0,1,4.73-1.36Z"/><path d="M71.82,37.61A15.08,15.08,0,0,1,76.7,39h0s1.29-1.25-1.5-2.47a38.7,38.7,0,0,0-3.93-.85Z"/></g><path class="cls-10" d="M13.2,48.68A56.5,56.5,0,0,1,2.51,46a1.73,1.73,0,0,1-1.16-1.63V40.06a.62.62,0,0,1,.76-.6c2,.45,5,1.91,11.09,2.75Z"/><ellipse class="cls-11" cx="36.53" cy="50.95" rx="3.15" ry="1.37" transform="translate(-22.8 71.23) rotate(-73.23)"/><path class="cls-12" d="M36.68,48.13a9.88,9.88,0,0,0-9.45-7v.6a9.28,9.28,0,0,1,9,6.93A2.52,2.52,0,0,1,36.68,48.13Z"/><path class="cls-13" d="M37.55,48a.66.66,0,0,0-.5,0l.1,0c.68.37.77,2,.2,3.64A3.62,3.62,0,0,1,35.6,54c.68.22,1.62-.79,2.16-2.35S38.23,48.35,37.55,48Z"/><path class="cls-14" d="M36.1,50.42a3.93,3.93,0,0,1,1.62-2.3.58.58,0,0,0-.17-.14c-.67-.37-1.68.66-2.25,2.31s-.47,3.27.2,3.64a.7.7,0,0,0,.63,0C35.62,53.38,35.59,51.91,36.1,50.42Z"/><path class="cls-15" d="M45.16,48a.66.66,0,0,1,.5,0l-.1,0c-.67.37-.77,2-.2,3.64A3.65,3.65,0,0,0,47.11,54c-.67.22-1.62-.79-2.15-2.35S44.48,48.35,45.16,48Z"/><ellipse class="cls-16" cx="46.18" cy="50.95" rx="1.37" ry="3.15" transform="translate(-12.74 15.49) rotate(-16.77)"/><path class="cls-17" d="M46,48.12a2.52,2.52,0,0,1,.49.49,9.27,9.27,0,0,1,9-6.92v-.6A9.88,9.88,0,0,0,46,48.12Z"/><path class="cls-18" d="M46.61,50.42A3.9,3.9,0,0,0,45,48.12a.75.75,0,0,1,.17-.14c.68-.37,1.69.66,2.26,2.31s.47,3.27-.21,3.64a.7.7,0,0,1-.63,0C47.09,53.38,47.12,51.91,46.61,50.42Z"/><path class="cls-19" d="M55.48,33.14h0a.9.9,0,0,0,.85.94c13.08.68,19.16,2.05,20.38,2.93-1.9,1.4-14.84,3.28-35.13,3.28S8.33,38.41,6.44,37c1.13-.83,6.31-1.93,15.63-2.63.26.3.83.38,1.42,1C25,37,25.44,39.64,28,39.52l6.27-.28a.58.58,0,0,0,.55-.6l-.22-4.85h0l0-1.79a196,196,0,0,0-20.91,1.44c-8,1.12-9.11,2.37-9.11,3.56,0,1.8,3.3,2.92,11.39,3.85a234,234,0,0,0,25.68,1.24,234.26,234.26,0,0,0,25.68-1.24c8.09-.93,11.39-2.05,11.39-3.85,0-.89,0-3.57-22.23-4.71A.89.89,0,0,0,55.48,33.14Z"/><path class="cls-20" d="M19.48,37.33h0a2.71,2.71,0,0,0-2.25-2.52c-6.29.66-9.87,1.52-10.79,2.19,1,.77,5.34,1.67,12.31,2.34A2.7,2.7,0,0,0,19.48,37.33Z"/><path class="cls-21" d="M19.48,37.33h0a2.71,2.71,0,0,0-2.25-2.52c-6.29.66-9.87,1.52-10.79,2.19,1,.77,5.34,1.67,12.31,2.34A2.7,2.7,0,0,0,19.48,37.33Z"/><path class="cls-22" d="M27.8,39.52a4.4,4.4,0,0,1-2-1.7,8.36,8.36,0,0,0-2.12-2.64,5.59,5.59,0,0,0-1.62-.81c.26.3.83.38,1.42,1C25,37,25.43,39.51,27.8,39.52Z"/><path class="cls-23" d="M74.55,37.82c-4.78,1.22-16.43,2.47-33,2.47-15.8,0-27.14-1.14-32.29-2.31,6.61,1.7,18.58,2.58,32.29,2.58C55.72,40.56,68.08,39.6,74.55,37.82Z"/><path class="cls-24" d="M1.62,39.68l0,0h0S1.61,39.69,1.62,39.68Z"/><polygon class="cls-25" points="13.2 42.21 13.2 48.68 15.85 47.18 15.85 40.84 13.2 42.21"/><path class="cls-26" d="M4.72,37.72a17.6,17.6,0,0,0-3,1.78.64.64,0,0,1,.39,0c2,.45,5,1.91,11.09,2.75l2.64-1.36C8.93,40,5.53,39.11,4.72,37.72Z"/><path class="cls-27" d="M13.34,48.19a98.94,98.94,0,0,0,11,1.07V43.58a101.64,101.64,0,0,1-11-1Z"/><path class="cls-27" d="M15.69,46.88a98.94,98.94,0,0,0,11,1.07V42.27a100.24,100.24,0,0,1-11-1Z"/><rect class="cls-28" x="22.99" y="33.51" width="2.22" height="0.51" rx="0.26" ry="0.26" transform="translate(-1.84 1.39) rotate(-3.18)"/><path class="cls-29" d="M15.69,41.26l-2.35,1.32s5.7.83,11,1l2.35-1.31A105.11,105.11,0,0,1,15.69,41.26Z"/><path class="cls-30" d="M15.69,46.88l-2.35,1.31a86.49,86.49,0,0,0,11,1.07L26.69,48h0A103.39,103.39,0,0,1,15.69,46.88Z"/><ellipse class="cls-31" cx="3.36" cy="43.18" rx="1.01" ry="1.39" transform="translate(-1.99 0.2) rotate(-2.65)"/><ellipse class="cls-32" cx="3.36" cy="43.18" rx="0.56" ry="0.77" transform="translate(-1.19 0.11) rotate(-1.58)"/><ellipse class="cls-31" cx="3.36" cy="43.18" rx="0.22" ry="0.3" transform="translate(-1.19 0.11) rotate(-1.58)"/><path class="cls-33" d="M11.88,33.7c-1.58.26-2.84.53-3.82.79C5.05,35.73,6.44,37,6.44,37a14.45,14.45,0,0,1,4.73-1.36Z"/><path class="cls-34" d="M71.82,35.61A15.08,15.08,0,0,1,76.7,37h0s1.29-1.25-1.5-2.47a38.7,38.7,0,0,0-3.93-.85Z"/><path class="cls-35" d="M18,72.5H15.66A8.16,8.16,0,0,1,7.5,64.34V62"/><path class="cls-36" d="M72.5,62v2.34a8.16,8.16,0,0,1-8.16,8.16H62"/><path class="cls-37" d="M62,7.5h2.34a8.16,8.16,0,0,1,8.16,8.16V18"/><path class="cls-38" d="M7.5,18V15.66A8.16,8.16,0,0,1,15.66,7.5H18"/></g></g></g></svg>